<svg width="22" height="22" viewBox="0 0 22 22" fill="none" xmlns="http://www.w3.org/2000/svg">
<path opacity="0.4" d="M11 4.85834V19.5525C10.8442 19.5525 10.6792 19.525 10.5508 19.4517L10.5142 19.4333C8.75418 18.4708 5.68334 17.4625 3.69418 17.1967L3.42834 17.16C2.54834 17.05 1.83334 16.225 1.83334 15.345V4.27167C1.83334 3.18084 2.72251 2.35584 3.81334 2.4475C5.73834 2.60334 8.65334 3.575 10.285 4.5925L10.5142 4.73C10.6517 4.8125 10.8258 4.85834 11 4.85834Z" fill="#06071C"/>
<path d="M20.1667 4.28083V15.345C20.1667 16.225 19.4517 17.05 18.5717 17.16L18.2692 17.1967C16.2708 17.4625 13.1908 18.48 11.4308 19.4517C11.3117 19.525 11.165 19.5525 11 19.5525V4.85833C11.1742 4.85833 11.3483 4.8125 11.4858 4.73L11.6417 4.62917C13.2733 3.6025 16.1975 2.62167 18.1225 2.45667H18.1775C19.2683 2.365 20.1667 3.18083 20.1667 4.28083Z" fill="#06071C"/>
<path d="M7.10416 8.47H5.04166C4.66582 8.47 4.35416 8.15833 4.35416 7.7825C4.35416 7.40667 4.66582 7.095 5.04166 7.095H7.10416C7.47999 7.095 7.79166 7.40667 7.79166 7.7825C7.79166 8.15833 7.47999 8.47 7.10416 8.47Z" fill="#06071C"/>
<path d="M7.79166 11.22H5.04166C4.66582 11.22 4.35416 10.9083 4.35416 10.5325C4.35416 10.1567 4.66582 9.845 5.04166 9.845H7.79166C8.16749 9.845 8.47916 10.1567 8.47916 10.5325C8.47916 10.9083 8.16749 11.22 7.79166 11.22Z" fill="#06071C"/>
</svg>
