<svg width="37" height="37" viewBox="0 0 37 37" fill="none" xmlns="http://www.w3.org/2000/svg">
<path opacity="0.4" d="M19.25 11.615V33.5H6.62002C4.88002 33.5 3.45502 32.105 3.45502 30.395V8.13504C3.45502 4.20504 6.39502 2.42004 9.98002 4.17504L16.625 7.46004C18.065 8.16504 19.25 10.04 19.25 11.615Z" fill="#06071C"/>
<path d="M13.955 15.125H8.75C8.135 15.125 7.625 14.615 7.625 14C7.625 13.385 8.135 12.875 8.75 12.875H13.955C14.57 12.875 15.08 13.385 15.08 14C15.08 14.615 14.585 15.125 13.955 15.125Z" fill="#06071C"/>
<path d="M13.955 21.125H8.75C8.135 21.125 7.625 20.615 7.625 20C7.625 19.385 8.135 18.875 8.75 18.875H13.955C14.57 18.875 15.08 19.385 15.08 20C15.08 20.615 14.585 21.125 13.955 21.125Z" fill="#06071C"/>
<path opacity="0.6" d="M33.5 23.0749V29.7499C33.5 31.8199 31.82 33.4999 29.75 33.4999H19.25V16.1299L19.955 16.2799L26.015 17.6299L26.735 17.7949L29.795 18.4849C30.53 18.6349 31.205 18.8899 31.79 19.2649C31.79 19.2799 31.805 19.2799 31.805 19.2799C31.955 19.3849 32.105 19.5049 32.24 19.6399C32.93 20.3299 33.38 21.3349 33.485 22.8049C33.485 22.8949 33.5 22.9849 33.5 23.0749Z" fill="#06071C"/>
<path d="M19.25 16.1299V25.1299C19.94 26.0449 21.02 26.6299 22.25 26.6299C24.335 26.6299 26.015 24.9499 26.015 22.8799V17.6449L19.955 16.2949L19.25 16.1299Z" fill="#06071C"/>
<path d="M33.485 22.8049C33.38 21.3349 32.93 20.3299 32.24 19.6399C32.105 19.5049 31.955 19.3849 31.805 19.2799C31.805 19.2799 31.79 19.2799 31.79 19.2649C31.205 18.8899 30.53 18.6349 29.795 18.4849L26.735 17.7949L26.015 17.6299V22.8799C26.015 24.9349 27.68 26.6299 29.765 26.6299C31.775 26.6299 33.38 25.0549 33.5 23.0899V23.0749C33.5 22.9849 33.485 22.8949 33.485 22.8049Z" fill="#06071C"/>
</svg>
