<svg width="41" height="40" viewBox="0 0 41 40" fill="none" xmlns="http://www.w3.org/2000/svg">
<path d="M28.4167 5.93325V3.33325C28.4167 2.64992 27.85 2.08325 27.1667 2.08325C26.4833 2.08325 25.9167 2.64992 25.9167 3.33325V5.83325H15.0833V3.33325C15.0833 2.64992 14.5167 2.08325 13.8333 2.08325C13.15 2.08325 12.5833 2.64992 12.5833 3.33325V5.93325C8.08334 6.34991 5.90001 9.03325 5.56667 13.0166C5.53334 13.4999 5.93334 13.8999 6.40001 13.8999H34.6C35.0833 13.8999 35.4833 13.4832 35.4333 13.0166C35.1 9.03325 32.9167 6.34991 28.4167 5.93325Z" fill="white"/>
<path opacity="0.4" d="M33.8333 16.3999C34.75 16.3999 35.5 17.1499 35.5 18.0666V28.3332C35.5 33.3332 33 36.6666 27.1667 36.6666H13.8333C8 36.6666 5.5 33.3332 5.5 28.3332V18.0666C5.5 17.1499 6.25 16.3999 7.16667 16.3999H33.8333Z" fill="white"/>
<path d="M14.6667 25C14.2333 25 13.8 24.8166 13.4833 24.5166C13.1833 24.1999 13 23.7666 13 23.3333C13 22.9 13.1833 22.4666 13.4833 22.15C13.95 21.6833 14.6833 21.5333 15.3 21.7999C15.5167 21.8833 15.7 22 15.85 22.15C16.15 22.4666 16.3333 22.9 16.3333 23.3333C16.3333 23.7666 16.15 24.1999 15.85 24.5166C15.5333 24.8166 15.1 25 14.6667 25Z" fill="white"/>
<path d="M20.5 25C20.0667 25 19.6333 24.8166 19.3167 24.5166C19.0167 24.1999 18.8333 23.7666 18.8333 23.3333C18.8333 22.9 19.0167 22.4666 19.3167 22.15C19.4667 22 19.65 21.8833 19.8667 21.7999C20.4833 21.5333 21.2167 21.6833 21.6833 22.15C21.9833 22.4666 22.1667 22.9 22.1667 23.3333C22.1667 23.7666 21.9833 24.1999 21.6833 24.5166C21.6 24.5833 21.5167 24.6499 21.4333 24.7166C21.3333 24.7833 21.2333 24.8333 21.1333 24.8666C21.0333 24.9166 20.9333 24.95 20.8333 24.9666C20.7167 24.9833 20.6167 25 20.5 25Z" fill="white"/>
<path d="M26.3333 25.0001C25.9 25.0001 25.4667 24.8168 25.15 24.5168C24.85 24.2001 24.6667 23.7668 24.6667 23.3334C24.6667 22.9001 24.85 22.4668 25.15 22.1501C25.3167 22.0001 25.4833 21.8834 25.7 21.8001C26 21.6667 26.3333 21.6334 26.6667 21.7001C26.7667 21.7167 26.8667 21.7501 26.9667 21.8001C27.0667 21.8334 27.1667 21.8835 27.2667 21.9501C27.35 22.0168 27.4333 22.0834 27.5167 22.1501C27.8167 22.4668 28 22.9001 28 23.3334C28 23.7668 27.8167 24.2001 27.5167 24.5168C27.4333 24.5834 27.35 24.6501 27.2667 24.7167C27.1667 24.7834 27.0667 24.8335 26.9667 24.8668C26.8667 24.9168 26.7667 24.9501 26.6667 24.9668C26.55 24.9835 26.4333 25.0001 26.3333 25.0001Z" fill="white"/>
<path d="M14.6667 30.8334C14.45 30.8334 14.2333 30.7834 14.0333 30.7C13.8167 30.6167 13.65 30.5 13.4833 30.35C13.1833 30.0333 13 29.6 13 29.1667C13 28.7334 13.1833 28.3 13.4833 27.9834C13.65 27.8334 13.8167 27.7167 14.0333 27.6333C14.3333 27.5 14.6667 27.4667 15 27.5333C15.1 27.55 15.2 27.5833 15.3 27.6333C15.4 27.6667 15.5 27.7167 15.6 27.7834C15.6833 27.85 15.7667 27.9167 15.85 27.9834C16.15 28.3 16.3333 28.7334 16.3333 29.1667C16.3333 29.6 16.15 30.0333 15.85 30.35C15.7667 30.4167 15.6833 30.5 15.6 30.55C15.5 30.6167 15.4 30.6667 15.3 30.7C15.2 30.75 15.1 30.7834 15 30.8C14.8833 30.8167 14.7833 30.8334 14.6667 30.8334Z" fill="white"/>
<path d="M20.5 30.8332C20.0667 30.8332 19.6333 30.6499 19.3167 30.3499C19.0167 30.0332 18.8333 29.5999 18.8333 29.1666C18.8333 28.7332 19.0167 28.2999 19.3167 27.9833C19.9333 27.3666 21.0667 27.3666 21.6833 27.9833C21.9833 28.2999 22.1667 28.7332 22.1667 29.1666C22.1667 29.5999 21.9833 30.0332 21.6833 30.3499C21.3667 30.6499 20.9333 30.8332 20.5 30.8332Z" fill="white"/>
<path d="M26.3333 30.8332C25.9 30.8332 25.4667 30.6499 25.15 30.3499C24.85 30.0332 24.6667 29.5999 24.6667 29.1666C24.6667 28.7332 24.85 28.2999 25.15 27.9833C25.7667 27.3666 26.9 27.3666 27.5167 27.9833C27.8167 28.2999 28 28.7332 28 29.1666C28 29.5999 27.8167 30.0332 27.5167 30.3499C27.2 30.6499 26.7667 30.8332 26.3333 30.8332Z" fill="white"/>
</svg>
