<svg width="37" height="37" viewBox="0 0 37 37" fill="none" xmlns="http://www.w3.org/2000/svg">
<path opacity="0.4" d="M29 15.9202V26.6452C28.955 30.9202 27.785 32.0002 23.33 32.0002H9.17004C4.64004 32.0002 3.5 30.8752 3.5 26.4052V15.9202C3.5 11.8702 4.445 10.5652 8 10.3552C8.36 10.3402 8.75004 10.3252 9.17004 10.3252H23.33C27.86 10.3252 29 11.4502 29 15.9202Z" fill="#06071C"/>
<path d="M33.5 10.595V21.08C33.5 25.13 32.555 26.435 29 26.645V15.92C29 11.45 27.86 10.325 23.33 10.325H9.17004C8.75004 10.325 8.36 10.34 8 10.355C8.045 6.08 9.21504 5 13.67 5H27.83C32.36 5 33.5 6.125 33.5 10.595Z" fill="#06071C"/>
<path d="M10.94 28.3398H8.35999C7.74499 28.3398 7.23499 27.8298 7.23499 27.2148C7.23499 26.5998 7.74499 26.0898 8.35999 26.0898H10.94C11.555 26.0898 12.065 26.5998 12.065 27.2148C12.065 27.8298 11.57 28.3398 10.94 28.3398Z" fill="#06071C"/>
<path d="M19.325 28.3398H14.165C13.55 28.3398 13.04 27.8298 13.04 27.2148C13.04 26.5998 13.55 26.0898 14.165 26.0898H19.325C19.94 26.0898 20.45 26.5998 20.45 27.2148C20.45 27.8298 19.955 28.3398 19.325 28.3398Z" fill="#06071C"/>
<path d="M29 18.29H3.5V20.54H29V18.29Z" fill="#06071C"/>
</svg>
