<svg width="36" height="37" viewBox="0 0 36 37" fill="none" xmlns="http://www.w3.org/2000/svg">
<path opacity="0.4" d="M33 14V25.19C33 28.625 30.21 31.4 26.775 31.4H9.225C5.79 31.4 3 28.625 3 25.19V14H33Z" fill="white"/>
<path d="M33 11.8101V14.0001H3V11.8101C3 8.3751 5.79 5.6001 9.225 5.6001H26.775C30.21 5.6001 33 8.3751 33 11.8101Z" fill="white"/>
<path d="M12 26.375H9C8.385 26.375 7.875 25.865 7.875 25.25C7.875 24.635 8.385 24.125 9 24.125H12C12.615 24.125 13.125 24.635 13.125 25.25C13.125 25.865 12.615 26.375 12 26.375Z" fill="white"/>
<path d="M21.75 26.375H15.75C15.135 26.375 14.625 25.865 14.625 25.25C14.625 24.635 15.135 24.125 15.75 24.125H21.75C22.365 24.125 22.875 24.635 22.875 25.25C22.875 25.865 22.365 26.375 21.75 26.375Z" fill="white"/>
</svg>
