<svg width="36" height="37" viewBox="0 0 36 37" fill="none" xmlns="http://www.w3.org/2000/svg">
<path opacity="0.4" fill-rule="evenodd" clip-rule="evenodd" d="M33 21.875C33.6213 21.875 34.125 22.3787 34.125 23C34.125 29.4263 28.9263 34.625 22.5 34.625C22.0947 34.625 21.7207 34.407 21.521 34.0543C21.3213 33.7016 21.3268 33.2687 21.5353 32.9212L23.1103 30.2962C23.43 29.7634 24.121 29.5907 24.6538 29.9103C25.1866 30.23 25.3593 30.921 25.0397 31.4538L24.6327 32.1321C28.7863 31.1685 31.875 27.4499 31.875 23C31.875 22.3787 32.3787 21.875 33 21.875Z" fill="#06071C"/>
<path opacity="0.4" fill-rule="evenodd" clip-rule="evenodd" d="M11.3673 4.8679C7.21365 5.83154 4.125 9.55013 4.125 14C4.125 14.6213 3.62132 15.125 3 15.125C2.37868 15.125 1.875 14.6213 1.875 14C1.875 7.57368 7.07368 2.375 13.5 2.375C13.9053 2.375 14.2793 2.59302 14.479 2.94571C14.6787 3.29841 14.6732 3.73126 14.4647 4.0788L12.8897 6.7038C12.57 7.23658 11.879 7.40935 11.3462 7.08968C10.8134 6.77002 10.6407 6.07898 10.9603 5.5462L11.3673 4.8679Z" fill="#06071C"/>
<path opacity="0.4" d="M18 24.05V24.965H3V24.05C3 21.41 3.66 20.75 6.33 20.75H14.67C17.34 20.75 18 21.41 18 24.05Z" fill="#06071C"/>
<path d="M3 24.9648V27.2148V30.1998C3 32.8398 3.66 33.4998 6.33 33.4998H14.67C17.34 33.4998 18 32.8398 18 30.1998V27.2148V24.9648H3Z" fill="#06071C"/>
<path opacity="0.4" d="M33 6.8V7.715H18V6.8C18 4.16 18.66 3.5 21.33 3.5H29.67C32.34 3.5 33 4.16 33 6.8Z" fill="#06071C"/>
<path d="M18 7.71484V9.96484V12.9498C18 15.5898 18.66 16.2498 21.33 16.2498H29.67C32.34 16.2498 33 15.5898 33 12.9498V9.96484V7.71484H18Z" fill="#06071C"/>
</svg>
