<svg width="22" height="22" viewBox="0 0 22 22" fill="none" xmlns="http://www.w3.org/2000/svg">
<path opacity="0.4" d="M15.3725 17.3983H6.62751C6.24251 17.3983 5.89417 17.1508 5.76584 16.7933L1.95251 6.11416C1.65001 5.26166 2.62167 4.53749 3.34584 5.05999L7.01251 7.68166C7.49834 8.03 8.19501 7.81916 8.40584 7.26L10.1383 2.64C10.4317 1.8425 11.5592 1.8425 11.8525 2.64L13.585 7.26C13.7958 7.82833 14.4833 8.03 14.9783 7.68166L18.645 5.05999C19.3783 4.53749 20.3408 5.27083 20.0383 6.11416L16.225 16.7933C16.1058 17.1508 15.7575 17.3983 15.3725 17.3983Z" fill="white"/>
<path d="M15.5833 20.1667H6.41666C6.04082 20.1667 5.72916 19.855 5.72916 19.4792C5.72916 19.1033 6.04082 18.7917 6.41666 18.7917H15.5833C15.9592 18.7917 16.2708 19.1033 16.2708 19.4792C16.2708 19.855 15.9592 20.1667 15.5833 20.1667Z" fill="white"/>
<path d="M13.2917 13.5208H8.70834C8.33251 13.5208 8.02084 13.2092 8.02084 12.8333C8.02084 12.4575 8.33251 12.1458 8.70834 12.1458H13.2917C13.6675 12.1458 13.9792 12.4575 13.9792 12.8333C13.9792 13.2092 13.6675 13.5208 13.2917 13.5208Z" fill="white"/>
</svg>
