<svg width="41" height="40" viewBox="0 0 41 40" fill="none" xmlns="http://www.w3.org/2000/svg">
<path opacity="0.4" d="M28.45 31.6332H12.55C11.85 31.6332 11.2167 31.1832 10.9833 30.5332L4.05 11.1166C3.5 9.56657 5.26667 8.2499 6.58334 9.1999L13.25 13.9666C14.1333 14.5999 15.4 14.2166 15.7833 13.1999L18.9333 4.7999C19.4667 3.3499 21.5167 3.3499 22.05 4.7999L25.2 13.1999C25.5833 14.2332 26.8333 14.5999 27.7333 13.9666L34.4 9.1999C35.7333 8.2499 37.4833 9.58324 36.9333 11.1166L30 30.5332C29.7833 31.1832 29.15 31.6332 28.45 31.6332Z" fill="#06071C"/>
<path d="M28.8333 36.6667H12.1667C11.4833 36.6667 10.9167 36.1001 10.9167 35.4167C10.9167 34.7334 11.4833 34.1667 12.1667 34.1667H28.8333C29.5167 34.1667 30.0833 34.7334 30.0833 35.4167C30.0833 36.1001 29.5167 36.6667 28.8333 36.6667Z" fill="#06071C"/>
<path d="M24.6667 24.5833H16.3333C15.65 24.5833 15.0833 24.0166 15.0833 23.3333C15.0833 22.6499 15.65 22.0833 16.3333 22.0833H24.6667C25.35 22.0833 25.9167 22.6499 25.9167 23.3333C25.9167 24.0166 25.35 24.5833 24.6667 24.5833Z" fill="#06071C"/>
</svg>
