<svg width="22" height="22" viewBox="0 0 22 22" fill="none" xmlns="http://www.w3.org/2000/svg">
<path opacity="0.4" d="M11 20.075C16.0626 20.075 20.1667 15.9709 20.1667 10.9083C20.1667 5.84573 16.0626 1.74167 11 1.74167C5.9374 1.74167 1.83334 5.84573 1.83334 10.9083C1.83334 15.9709 5.9374 20.075 11 20.075Z" fill="white"/>
<path d="M13.0717 11L11.6875 10.5142V7.40667H12.0175C12.76 7.40667 13.365 8.0575 13.365 8.855C13.365 9.23083 13.6767 9.5425 14.0525 9.5425C14.4283 9.5425 14.74 9.23083 14.74 8.855C14.74 7.29667 13.5208 6.03167 12.0175 6.03167H11.6875V5.5C11.6875 5.12417 11.3758 4.8125 11 4.8125C10.6242 4.8125 10.3125 5.12417 10.3125 5.5V6.03167H9.71666C8.35999 6.03167 7.25082 7.1775 7.25082 8.58C7.25082 10.2208 8.20416 10.7433 8.92832 11L10.3125 11.4858V14.5842H9.98249C9.23999 14.5842 8.63499 13.9333 8.63499 13.1358C8.63499 12.76 8.32332 12.4483 7.94749 12.4483C7.57166 12.4483 7.25999 12.76 7.25999 13.1358C7.25999 14.6942 8.47916 15.9592 9.98249 15.9592H10.3125V16.5C10.3125 16.8758 10.6242 17.1875 11 17.1875C11.3758 17.1875 11.6875 16.8758 11.6875 16.5V15.9683H12.2833C13.64 15.9683 14.7492 14.8225 14.7492 13.42C14.74 11.77 13.7867 11.2475 13.0717 11ZM9.38666 9.7075C8.91916 9.5425 8.63499 9.38667 8.63499 8.58917C8.63499 7.93833 9.12082 7.41583 9.72582 7.41583H10.3217V10.0375L9.38666 9.7075ZM12.2833 14.5933H11.6875V11.9717L12.6133 12.2925C13.0808 12.4575 13.365 12.6133 13.365 13.4108C13.365 14.0617 12.8792 14.5933 12.2833 14.5933Z" fill="white"/>
</svg>
