<svg width="40" height="40" viewBox="0 0 40 40" fill="none" xmlns="http://www.w3.org/2000/svg">
<path opacity="0.4" d="M20 36.5001C29.2047 36.5001 36.6667 29.0382 36.6667 19.8334C36.6667 10.6287 29.2047 3.16675 20 3.16675C10.7953 3.16675 3.33333 10.6287 3.33333 19.8334C3.33333 29.0382 10.7953 36.5001 20 36.5001Z" fill="#06071C"/>
<path d="M23.7667 20L21.25 19.1167V13.4667H21.85C23.2 13.4667 24.3 14.65 24.3 16.1C24.3 16.7833 24.8667 17.35 25.55 17.35C26.2333 17.35 26.8 16.7833 26.8 16.1C26.8 13.2667 24.5833 10.9667 21.85 10.9667H21.25V10C21.25 9.31667 20.6833 8.75 20 8.75C19.3167 8.75 18.75 9.31667 18.75 10V10.9667H17.6667C15.2 10.9667 13.1833 13.05 13.1833 15.6C13.1833 18.5833 14.9167 19.5333 16.2333 20L18.75 20.8833V26.5167H18.15C16.8 26.5167 15.7 25.3333 15.7 23.8833C15.7 23.2 15.1333 22.6333 14.45 22.6333C13.7667 22.6333 13.2 23.2 13.2 23.8833C13.2 26.7167 15.4167 29.0167 18.15 29.0167H18.75V30C18.75 30.6833 19.3167 31.25 20 31.25C20.6833 31.25 21.25 30.6833 21.25 30V29.0333H22.3333C24.8 29.0333 26.8167 26.95 26.8167 24.4C26.8 21.4 25.0667 20.45 23.7667 20ZM17.0667 17.65C16.2167 17.35 15.7 17.0667 15.7 15.6167C15.7 14.4333 16.5833 13.4833 17.6833 13.4833H18.7667V18.25L17.0667 17.65ZM22.3333 26.5333H21.25V21.7667L22.9333 22.35C23.7833 22.65 24.3 22.9333 24.3 24.3833C24.3 25.5667 23.4167 26.5333 22.3333 26.5333Z" fill="#06071C"/>
</svg>
