<svg width="22" height="22" viewBox="0 0 22 22" fill="none" xmlns="http://www.w3.org/2000/svg">
<path opacity="0.4" d="M17.7283 13.2825L16.8117 11.7608C16.6192 11.4217 16.445 10.78 16.445 10.4042V8.085C16.445 5.09667 14.0158 2.65833 11.0183 2.65833C8.02083 2.65833 5.59167 5.09667 5.59167 8.085V10.4042C5.59167 10.78 5.4175 11.4217 5.225 11.7517L4.29917 13.2825C3.9325 13.8967 3.85 14.575 4.07917 15.1983C4.29917 15.8125 4.82167 16.2892 5.5 16.5183C7.27833 17.1233 9.14833 17.4167 11.0183 17.4167C12.8883 17.4167 14.7583 17.1233 16.5367 16.5275C17.1783 16.3167 17.6733 15.8308 17.9117 15.1983C18.15 14.5658 18.0858 13.8692 17.7283 13.2825Z" fill="#06071C"/>
<circle cx="15" cy="6" r="3" fill="#F46325"/>
<path d="M13.0625 3.04333C12.43 2.79583 11.7425 2.65833 11.0183 2.65833C10.3033 2.65833 9.61584 2.78666 8.98334 3.04333C9.3775 2.30083 10.1567 1.83333 11.0183 1.83333C11.8892 1.83333 12.6592 2.30083 13.0625 3.04333Z" fill="#06071C"/>
<path d="M13.5942 18.3425C13.2092 19.4058 12.1917 20.1667 11 20.1667C10.2758 20.1667 9.56084 19.8733 9.05668 19.3508C8.76334 19.0758 8.54334 18.7092 8.41501 18.3333C8.53418 18.3517 8.65334 18.3608 8.78167 18.3792C8.99251 18.4067 9.21251 18.4342 9.43251 18.4525C9.95501 18.4983 10.4867 18.5258 11.0183 18.5258C11.5408 18.5258 12.0633 18.4983 12.5767 18.4525C12.7692 18.4342 12.9617 18.425 13.145 18.3975C13.2917 18.3792 13.4383 18.3608 13.5942 18.3425Z" fill="#06071C"/>
</svg>
