<svg width="40" height="40" viewBox="0 0 40 40" fill="none" xmlns="http://www.w3.org/2000/svg">
<path opacity="0.4" d="M29.2167 12.9499C29.1 12.9333 28.9833 12.9333 28.8667 12.9499C26.2833 12.8666 24.2333 10.7499 24.2333 8.14992C24.2333 5.49992 26.3833 3.33325 29.05 3.33325C31.7 3.33325 33.8667 5.48325 33.8667 8.14992C33.85 10.7499 31.8 12.8666 29.2167 12.9499Z" fill="#06071C"/>
<path opacity="0.4" d="M34.65 24.4999C32.7833 25.7499 30.1667 26.2166 27.75 25.8999C28.3833 24.5333 28.7167 23.0166 28.7333 21.4166C28.7333 19.7499 28.3667 18.1666 27.6667 16.7833C30.1333 16.4499 32.75 16.9166 34.6333 18.1666C37.2667 19.8999 37.2667 22.7499 34.65 24.4999Z" fill="#06071C"/>
<path opacity="0.4" d="M10.7333 12.9499C10.85 12.9333 10.9667 12.9333 11.0833 12.9499C13.6667 12.8666 15.7167 10.7499 15.7167 8.14992C15.7167 5.49992 13.5667 3.33325 10.9 3.33325C8.25 3.33325 6.08334 5.48325 6.08334 8.14992C6.1 10.7499 8.15 12.8666 10.7333 12.9499Z" fill="#06071C"/>
<path opacity="0.4" d="M10.9167 21.4167C10.9167 23.0333 11.2667 24.5667 11.9 25.95C9.55 26.2 7.1 25.7 5.3 24.5167C2.66666 22.7667 2.66666 19.9167 5.3 18.1667C7.08333 16.9667 9.6 16.4833 11.9667 16.75C11.2833 18.15 10.9167 19.7334 10.9167 21.4167Z" fill="#06071C"/>
<path d="M20.2 26.45C20.0667 26.4333 19.9167 26.4333 19.7667 26.45C16.7 26.35 14.25 23.8333 14.25 20.7333C14.25 17.5667 16.8 15 19.9833 15C23.15 15 25.7167 17.5667 25.7167 20.7333C25.7167 23.8333 23.2833 26.35 20.2 26.45Z" fill="#06071C"/>
<path d="M14.7833 29.8999C12.2667 31.5832 12.2667 34.3499 14.7833 36.0166C17.65 37.9332 22.35 37.9332 25.2167 36.0166C27.7333 34.3332 27.7333 31.5666 25.2167 29.8999C22.3667 27.9832 17.6667 27.9832 14.7833 29.8999Z" fill="#06071C"/>
</svg>
