<svg xmlns="http://www.w3.org/2000/svg" viewBox="0 0 16 16" id="Ruler-Fill--Streamline-Mingcute-Fill" height="16" width="16">
  <desc>
    Ruler Fill Streamline Icon: https://streamlinehq.com
  </desc>
  <g fill="none" fill-rule="evenodd">
    <path d="M16 0v16H0V0h16ZM8.395333333333333 15.505333333333333l-0.007333333333333332 0.0013333333333333333 -0.047333333333333324 0.023333333333333334 -0.013333333333333332 0.0026666666666666666 -0.009333333333333332 -0.0026666666666666666 -0.047333333333333324 -0.023333333333333334c-0.006666666666666666 -0.0026666666666666666 -0.012666666666666666 -0.0006666666666666666 -0.016 0.003333333333333333l-0.0026666666666666666 0.006666666666666666 -0.011333333333333334 0.2853333333333333 0.003333333333333333 0.013333333333333332 0.006666666666666666 0.008666666666666666 0.06933333333333333 0.049333333333333326 0.009999999999999998 0.0026666666666666666 0.008 -0.0026666666666666666 0.06933333333333333 -0.049333333333333326 0.008 -0.010666666666666666 0.0026666666666666666 -0.011333333333333334 -0.011333333333333334 -0.2846666666666666c-0.0013333333333333333 -0.006666666666666666 -0.005999999999999999 -0.011333333333333334 -0.011333333333333334 -0.011999999999999999Zm0.17666666666666667 -0.07533333333333334 -0.008666666666666666 0.0013333333333333333 -0.12333333333333332 0.062 -0.006666666666666666 0.006666666666666666 -0.002 0.007333333333333332 0.011999999999999999 0.2866666666666666 0.003333333333333333 0.008 0.005333333333333333 0.004666666666666666 0.134 0.062c0.008 0.0026666666666666666 0.015333333333333332 0 0.019333333333333334 -0.005333333333333333l0.0026666666666666666 -0.009333333333333332 -0.02266666666666667 -0.4093333333333333c-0.002 -0.008 -0.006666666666666666 -0.013333333333333332 -0.013333333333333332 -0.014666666666666665Zm-0.4766666666666666 0.0013333333333333333a0.015333333333333332 0.015333333333333332 0 0 0 -0.018 0.004l-0.004 0.009333333333333332 -0.02266666666666667 0.4093333333333333c0 0.008 0.004666666666666666 0.013333333333333332 0.011333333333333334 0.016l0.009999999999999998 -0.0013333333333333333 0.134 -0.062 0.006666666666666666 -0.005333333333333333 0.0026666666666666666 -0.007333333333333332 0.011333333333333334 -0.2866666666666666 -0.002 -0.008 -0.006666666666666666 -0.006666666666666666 -0.12266666666666666 -0.06133333333333333Z" stroke-width="0.6667"></path>
    <path fill="#000000" d="M12.666666666666666 2a1.3333333333333333 1.3333333333333333 0 0 1 1.33 1.2333333333333334L14 3.333333333333333v3.333333333333333a1.3333333333333333 1.3333333333333333 0 0 1 -1.2333333333333334 1.33L12.666666666666666 8h-4.666666666666666v4.666666666666666a1.3333333333333333 1.3333333333333333 0 0 1 -1.2333333333333334 1.33L6.666666666666666 14H3.333333333333333a1.3333333333333333 1.3333333333333333 0 0 1 -1.33 -1.2333333333333334L2 12.666666666666666V3.333333333333333a1.3333333333333333 1.3333333333333333 0 0 1 1.2333333333333334 -1.33L3.333333333333333 2h9.333333333333332ZM4 10H3.333333333333333l-0.078 0.004666666666666666a0.6666666666666666 0.6666666666666666 0 0 0 0 1.3239999999999998L3.333333333333333 11.333333333333332h0.6666666666666666l0.078 -0.004666666666666666a0.6666666666666666 0.6666666666666666 0 0 0 0 -1.3239999999999998L4 10Zm0 -2.6666666666666665H3.333333333333333a0.6666666666666666 0.6666666666666666 0 0 0 -0.078 1.3286666666666667L3.333333333333333 8.666666666666666h0.6666666666666666a0.6666666666666666 0.6666666666666666 0 0 0 0.078 -1.3286666666666667L4 7.333333333333333Zm0 -2.6666666666666665H3.333333333333333a0.6666666666666666 0.6666666666666666 0 0 0 -0.078 1.3286666666666667L3.333333333333333 6h0.6666666666666666a0.6666666666666666 0.6666666666666666 0 0 0 0.078 -1.3286666666666667L4 4.666666666666666Zm1.3333333333333333 -2a0.6666666666666666 0.6666666666666666 0 0 0 -0.6619999999999999 0.5886666666666667L4.666666666666666 3.333333333333333v0.6666666666666666a0.6666666666666666 0.6666666666666666 0 0 0 1.3286666666666667 0.078L6 4V3.333333333333333a0.6666666666666666 0.6666666666666666 0 0 0 -0.6666666666666666 -0.6666666666666666Zm2.6666666666666665 0a0.6666666666666666 0.6666666666666666 0 0 0 -0.6619999999999999 0.5886666666666667L7.333333333333333 3.333333333333333v0.6666666666666666l0.004666666666666666 0.078a0.6666666666666666 0.6666666666666666 0 0 0 1.3239999999999998 0L8.666666666666666 4V3.333333333333333l-0.004666666666666666 -0.078A0.6666666666666666 0.6666666666666666 0 0 0 8 2.6666666666666665Zm2.6666666666666665 0a0.6666666666666666 0.6666666666666666 0 0 0 -0.6619999999999999 0.5886666666666667L10 3.333333333333333v0.6666666666666666a0.6666666666666666 0.6666666666666666 0 0 0 1.3286666666666667 0.078L11.333333333333332 4V3.333333333333333a0.6666666666666666 0.6666666666666666 0 0 0 -0.6666666666666666 -0.6666666666666666Z" stroke-width="0.6667"></path>
  </g>
</svg>