<svg width="22" height="22" viewBox="0 0 22 22" fill="none" xmlns="http://www.w3.org/2000/svg">
<path opacity="0.4" d="M14.6667 8.24071V18.6541C14.6667 19.9832 13.7133 20.5424 12.5492 19.9007L8.94669 17.8932C8.56169 17.6824 7.93833 17.6824 7.55333 17.8932L3.95084 19.9007C2.78667 20.5424 1.83334 19.9832 1.83334 18.6541V8.24071C1.83334 6.67321 3.11666 5.38989 4.68416 5.38989H11.8159C13.3834 5.38989 14.6667 6.67321 14.6667 8.24071Z" fill="#06071C"/>
<path d="M20.1667 4.68407V15.0974C20.1667 16.4266 19.2133 16.9857 18.0492 16.3441L14.6667 14.4557V8.24074C14.6667 6.67324 13.3834 5.38992 11.8159 5.38992H7.33334V4.68407C7.33334 3.11657 8.61666 1.83325 10.1842 1.83325H17.3159C18.8834 1.83325 20.1667 3.11657 20.1667 4.68407Z" fill="#06071C"/>
<path d="M10.0833 10.3126H8.93749V9.16675C8.93749 8.79091 8.62582 8.47925 8.24999 8.47925C7.87416 8.47925 7.56249 8.79091 7.56249 9.16675V10.3126H6.41666C6.04082 10.3126 5.72916 10.6242 5.72916 11.0001C5.72916 11.3759 6.04082 11.6876 6.41666 11.6876H7.56249V12.8334C7.56249 13.2092 7.87416 13.5209 8.24999 13.5209C8.62582 13.5209 8.93749 13.2092 8.93749 12.8334V11.6876H10.0833C10.4592 11.6876 10.7708 11.3759 10.7708 11.0001C10.7708 10.6242 10.4592 10.3126 10.0833 10.3126Z" fill="#06071C"/>
</svg>
