<svg width="69" height="68" viewBox="0 0 69 68" fill="none" xmlns="http://www.w3.org/2000/svg">
<rect x="2.5" y="2" width="64" height="64" rx="32" fill="url(#paint0_linear_1_284)"/>
<rect x="2.5" y="2" width="64" height="64" rx="32" stroke="white" stroke-width="4"/>
<path d="M37.8333 32.3334H29.8333C29.2867 32.3334 28.8333 31.88 28.8333 31.3334C28.8333 30.7867 29.2867 30.3334 29.8333 30.3334H37.8333C38.38 30.3334 38.8333 30.7867 38.8333 31.3334C38.8333 31.88 38.38 32.3334 37.8333 32.3334Z" fill="#06071C"/>
<path d="M33.8333 36.3334H29.8333C29.2867 36.3334 28.8333 35.88 28.8333 35.3334C28.8333 34.7867 29.2867 34.3334 29.8333 34.3334H33.8333C34.38 34.3334 34.8333 34.7867 34.8333 35.3334C34.8333 35.88 34.38 36.3334 33.8333 36.3334Z" fill="#06071C"/>
<path opacity="0.4" d="M33.8333 46C40.8289 46 46.5 40.3289 46.5 33.3333C46.5 26.3377 40.8289 20.6666 33.8333 20.6666C26.8377 20.6666 21.1667 26.3377 21.1667 33.3333C21.1667 40.3289 26.8377 46 33.8333 46Z" fill="#06071C"/>
<path d="M46.9 47.3334C46.66 47.3334 46.42 47.24 46.2467 47.0667L43.7667 44.5867C43.4067 44.2267 43.4067 43.64 43.7667 43.2667C44.1267 42.9067 44.7133 42.9067 45.0867 43.2667L47.5667 45.7467C47.9267 46.1067 47.9267 46.6934 47.5667 47.0667C47.38 47.24 47.14 47.3334 46.9 47.3334Z" fill="#06071C"/>
<defs>
<linearGradient id="paint0_linear_1_284" x1="8.35321" y1="17.6364" x2="45.9601" y2="19.6526" gradientUnits="userSpaceOnUse">
<stop stop-color="#F0FF2B"/>
<stop offset="1" stop-color="#CDFB35"/>
</linearGradient>
</defs>
</svg>
