<svg width="22" height="22" viewBox="0 0 22 22" fill="none" xmlns="http://www.w3.org/2000/svg">
<path d="M13.2917 9.854H7.79167C7.41584 9.854 7.10417 9.54234 7.10417 9.1665C7.10417 8.79067 7.41584 8.479 7.79167 8.479H13.2917C13.6675 8.479 13.9792 8.79067 13.9792 9.1665C13.9792 9.54234 13.6675 9.854 13.2917 9.854Z" fill="#06071C"/>
<path d="M10.5417 12.604H7.79167C7.41584 12.604 7.10417 12.2923 7.10417 11.9165C7.10417 11.5407 7.41584 11.229 7.79167 11.229H10.5417C10.9175 11.229 11.2292 11.5407 11.2292 11.9165C11.2292 12.2923 10.9175 12.604 10.5417 12.604Z" fill="#06071C"/>
<path opacity="0.4" d="M10.5417 19.2502C15.3511 19.2502 19.25 15.3513 19.25 10.5418C19.25 5.73235 15.3511 1.8335 10.5417 1.8335C5.73218 1.8335 1.83333 5.73235 1.83333 10.5418C1.83333 15.3513 5.73218 19.2502 10.5417 19.2502Z" fill="#06071C"/>
<path d="M19.525 20.1665C19.36 20.1665 19.195 20.1023 19.0758 19.9832L17.3708 18.2782C17.1233 18.0307 17.1233 17.6274 17.3708 17.3707C17.6183 17.1232 18.0217 17.1232 18.2783 17.3707L19.9833 19.0757C20.2308 19.3232 20.2308 19.7265 19.9833 19.9832C19.855 20.1023 19.69 20.1665 19.525 20.1665Z" fill="#06071C"/>
</svg>
