<svg width="24" height="24" viewBox="0 0 24 24" fill="none" xmlns="http://www.w3.org/2000/svg">
<path opacity="0.4" d="M9.42 2.15994L3.92 4.21994C2.87 4.60994 2.00999 5.85993 2.00999 6.97993V15.0799C2.00999 15.8899 2.54 16.9599 3.19 17.4399L8.69 21.5499C9.66 22.2799 11.25 22.2799 12.22 21.5499L17.72 17.4399C18.37 16.9499 18.9 15.8899 18.9 15.0799V6.97993C18.9 5.85993 18.04 4.60994 16.99 4.21994L11.49 2.15994C10.92 1.94994 9.99 1.94994 9.42 2.15994Z" fill="white"/>
<path d="M19.26 6.75977H12.41C12.21 6.75977 12.02 6.76978 11.84 6.76978C10.12 6.86978 9.66 7.49978 9.66 9.45978V9.84978C9.66 10.264 9.99579 10.5998 10.41 10.5998H21.25C21.6642 10.5998 22 10.264 22 9.84978V9.45978C22 7.29978 21.45 6.75977 19.26 6.75977Z" fill="white"/>
<path d="M10.42 11.7002C10.0058 11.7002 9.67 12.036 9.67 12.4502V14.5402C9.67 16.7002 10.22 17.2502 12.41 17.2502H19.26C21.41 17.2502 21.98 16.7302 22 14.6602V12.4502C22 12.036 21.6642 11.7002 21.25 11.7002H10.42ZM13.27 15.4702H12.02C11.72 15.4702 11.48 15.2302 11.48 14.9302C11.48 14.6302 11.72 14.3902 12.02 14.3902H13.27C13.57 14.3902 13.81 14.6302 13.81 14.9302C13.81 15.2302 13.57 15.4702 13.27 15.4702ZM17.32 15.4702H14.83C14.53 15.4702 14.29 15.2302 14.29 14.9302C14.29 14.6302 14.53 14.3902 14.83 14.3902H17.32C17.62 14.3902 17.86 14.6302 17.86 14.9302C17.87 15.2302 17.62 15.4702 17.32 15.4702Z" fill="white"/>
</svg>
