<svg xmlns="http://www.w3.org/2000/svg" viewBox="0 0 16 16" id="T-Shirt-Fill--Streamline-Mingcute-Fill" height="16" width="16">
  <desc>
    T Shirt Fill Streamline Icon: https://streamlinehq.com
  </desc>
  <g fill="none" fill-rule="evenodd">
    <path d="M16 0v16H0V0h16ZM8.395333333333333 15.505333333333333l-0.007333333333333332 0.0013333333333333333 -0.047333333333333324 0.023333333333333334 -0.013333333333333332 0.0026666666666666666 -0.009333333333333332 -0.0026666666666666666 -0.047333333333333324 -0.023333333333333334c-0.006666666666666666 -0.0026666666666666666 -0.012666666666666666 -0.0006666666666666666 -0.016 0.003333333333333333l-0.0026666666666666666 0.006666666666666666 -0.011333333333333334 0.2853333333333333 0.003333333333333333 0.013333333333333332 0.006666666666666666 0.008666666666666666 0.06933333333333333 0.049333333333333326 0.009999999999999998 0.0026666666666666666 0.008 -0.0026666666666666666 0.06933333333333333 -0.049333333333333326 0.008 -0.010666666666666666 0.0026666666666666666 -0.011333333333333334 -0.011333333333333334 -0.2846666666666666c-0.0013333333333333333 -0.006666666666666666 -0.005999999999999999 -0.011333333333333334 -0.011333333333333334 -0.011999999999999999Zm0.17666666666666667 -0.07533333333333334 -0.008666666666666666 0.0013333333333333333 -0.12333333333333332 0.062 -0.006666666666666666 0.006666666666666666 -0.002 0.007333333333333332 0.011999999999999999 0.2866666666666666 0.003333333333333333 0.008 0.005333333333333333 0.004666666666666666 0.134 0.062c0.008 0.0026666666666666666 0.015333333333333332 0 0.019333333333333334 -0.005333333333333333l0.0026666666666666666 -0.009333333333333332 -0.02266666666666667 -0.4093333333333333c-0.002 -0.008 -0.006666666666666666 -0.013333333333333332 -0.013333333333333332 -0.014666666666666665Zm-0.4766666666666666 0.0013333333333333333a0.015333333333333332 0.015333333333333332 0 0 0 -0.018 0.004l-0.004 0.009333333333333332 -0.02266666666666667 0.4093333333333333c0 0.008 0.004666666666666666 0.013333333333333332 0.011333333333333334 0.016l0.009999999999999998 -0.0013333333333333333 0.134 -0.062 0.006666666666666666 -0.005333333333333333 0.0026666666666666666 -0.007333333333333332 0.011333333333333334 -0.2866666666666666 -0.002 -0.008 -0.006666666666666666 -0.006666666666666666 -0.12266666666666666 -0.06133333333333333Z" stroke-width="0.6667"></path>
    <path fill="#000000" d="M3.8046666666666664 2.586A2 2 0 0 1 5.218666666666667 2c0.5266666666666666 0 1.2986666666666666 -0.14666666666666667 1.5346666666666666 0.474a1.3339999999999999 1.3339999999999999 0 0 0 2.493333333333333 0c0.236 -0.62 1.0086666666666666 -0.4733333333333333 1.5346666666666666 -0.4733333333333333a2 2 0 0 1 1.4133333333333333 0.5853333333333333L14.666666666666666 5.057333333333333a1.3333333333333333 1.3333333333333333 0 0 1 0 1.885333333333333l-0.9853333333333333 0.9853333333333333c-0.3466666666666667 0.3466666666666667 -0.8306666666666667 0.45933333333333326 -1.2666666666666666 0.3506666666666667l0.18133333333333335 3.6213333333333333A2 2 0 0 1 10.598666666666666 14H5.4013333333333335a2 2 0 0 1 -1.9973333333333332 -2.0999999999999996l0.18133333333333335 -3.6213333333333333a1.3306666666666667 1.3306666666666667 0 0 1 -1.2666666666666666 -0.3506666666666667L1.3333333333333333 6.942666666666666a1.3333333333333333 1.3333333333333333 0 0 1 0 -1.885333333333333l2.471333333333333 -2.471333333333333Z" stroke-width="0.6667"></path>
  </g>
</svg>