<svg width="24" height="24" viewBox="0 0 24 24" fill="none" xmlns="http://www.w3.org/2000/svg">
<path opacity="0.4" d="M21.08 8.58003V15.42C21.08 16.54 20.48 17.58 19.51 18.15L13.57 21.58C12.6 22.14 11.4 22.14 10.42 21.58L4.48 18.15C3.51 17.59 2.91 16.55 2.91 15.42V8.58003C2.91 7.46003 3.51 6.41999 4.48 5.84999L10.42 2.42C11.39 1.86 12.59 1.86 13.57 2.42L19.51 5.84999C20.48 6.41999 21.08 7.45003 21.08 8.58003Z" fill="#06071C"/>
<path d="M12 11.9998C13.2868 11.9998 14.33 10.9566 14.33 9.6698C14.33 8.38298 13.2868 7.33984 12 7.33984C10.7132 7.33984 9.67 8.38298 9.67 9.6698C9.67 10.9566 10.7132 11.9998 12 11.9998Z" fill="#06071C"/>
<path d="M14.68 16.6599C15.49 16.6599 15.96 15.7599 15.51 15.0899C14.83 14.0799 13.51 13.3999 12 13.3999C10.49 13.3999 9.17 14.0799 8.49 15.0899C8.04 15.7599 8.51 16.6599 9.32 16.6599H14.68Z" fill="#06071C"/>
</svg>
